<svg width="202" height="38" viewBox="0 0 202 38" fill="none" xmlns="http://www.w3.org/2000/svg">
  <path fill-rule="evenodd" clip-rule="evenodd" d="M56.6042 17.8303L63.297 11.1462H66.7603L58.9873 18.7307L66.8049 27.8994H63.3303L57.1384 20.4449L56.6042 20.9659V27.8994H54.0093V11.1462H56.6042V17.8303ZM86.8245 23.8302H79.4631L77.5478 27.8994H74.7527L83.2608 10.0938L91.4684 27.8994H88.6285L86.8245 23.8305V23.8302ZM85.7663 21.4543L83.2163 15.7575L80.5433 21.4543H85.7663ZM103.815 11.1462V25.5229H108.871V27.8994H101.22V11.1462H103.815ZM128.422 13.5224H121.529V17.548H128.222V19.9242H121.529V25.5232H128.422V27.8994H118.934V11.1462H128.422V13.5224ZM142.907 20.6622L137.294 11.1462H140.279L144.21 17.8407L148.152 11.1462H151.137L145.502 20.6625V27.8997H142.907V20.6622H142.907ZM160.721 27.8994V11.1462H164.33C166.06 11.1462 167.426 11.3124 168.428 11.6452C169.504 11.9709 170.481 12.524 171.357 13.3053C173.131 14.8823 174.018 16.9548 174.018 19.5228C174.018 22.0979 173.094 24.1814 171.245 25.7726C170.317 26.5682 169.345 27.1216 168.328 27.4327C167.377 27.7439 166.03 27.8994 164.285 27.8994H160.721ZM163.316 25.5229H164.486C165.651 25.5229 166.62 25.4036 167.392 25.1649C168.164 24.912 168.862 24.5103 169.486 23.9605C170.763 22.8249 171.401 21.3456 171.401 19.5228C171.401 17.6854 170.77 16.1954 169.508 15.0525C168.372 14.0324 166.698 13.5224 164.486 13.5224H163.316V25.5229ZM184.026 19.4468C184.026 17.0887 184.913 15.0631 186.688 13.3707C188.455 11.6779 190.578 10.8315 193.058 10.8315C195.508 10.8315 197.609 11.685 199.361 13.3923C201.121 15.0994 202 17.1502 202 19.5445C202 21.9533 201.117 23.9967 199.35 25.6749C197.575 27.3603 195.433 28.2031 192.924 28.2031C190.704 28.2031 188.711 27.4544 186.944 25.957C184.999 24.3004 184.026 22.1302 184.026 19.4468H184.026ZM186.643 19.4795C186.643 21.3311 187.282 22.8537 188.559 24.0475C189.828 25.2409 191.295 25.8376 192.958 25.8376C194.761 25.8376 196.284 25.2302 197.523 24.0148C198.763 22.7852 199.383 21.2877 199.383 19.5228C199.383 17.7362 198.771 16.2388 197.546 15.0308C196.328 13.8154 194.821 13.208 193.024 13.208C191.235 13.208 189.724 13.8154 188.492 15.0308C187.259 16.2313 186.643 17.7145 186.643 19.4795Z" fill="white"/>
  <path d="M192.999 21.0781C193.925 21.0781 194.677 20.3471 194.677 19.4453C194.677 18.5435 193.925 17.8125 192.999 17.8125C192.072 17.8125 191.32 18.5435 191.32 19.4453C191.32 20.3471 192.072 21.0781 192.999 21.0781Z" fill="white"/>
  <path d="M19.5287 0H19.504C19.3874 0 19.2715 0.00148437 19.1558 0.00445312C8.54259 0.197422 0 8.62808 0 19.0006C0 29.4773 8.71712 37.9739 19.4799 38H19.5287C30.3125 38.0009 39.0574 29.4928 39.0574 19.0006C39.0574 8.50814 30.3125 0 19.5287 0ZM31.8431 29.4936C33.7105 24.1923 31.7714 18.3273 27.0778 15.0789C22.3842 11.8305 16.0532 11.9724 11.5183 15.4274C11.8845 16.4329 12.4483 17.3596 13.1782 18.1557C14.3765 17.1585 15.8048 16.4577 17.3414 16.1131C18.878 15.7685 20.4774 15.7902 22.0035 16.1764C23.5296 16.5626 24.9372 17.3019 26.1064 18.3313C27.2757 19.3606 28.1719 20.6497 28.719 22.0886C29.266 23.5275 29.4475 25.0737 29.2481 26.5956C29.0488 28.1175 28.4744 29.57 27.5739 30.8294C26.6734 32.0888 25.4734 33.1179 24.0762 33.829C22.6789 34.5402 21.1257 34.9123 19.5488 34.9137C16.4238 34.9109 13.3653 34.0355 10.7366 32.3915C8.10779 30.7475 6.01927 28.404 4.71905 25.6392C3.41884 22.8745 2.96157 19.8047 3.40156 16.7946C3.84155 13.7845 5.16032 10.9605 7.20121 8.65806C5.37955 13.9564 7.34432 19.79 12.0358 23.012C16.7272 26.2337 23.0347 26.0814 27.5562 22.6367C27.19 21.6312 26.6262 20.7046 25.8963 19.9084C24.7057 20.8983 23.2883 21.5956 21.7632 21.942C20.2381 22.2884 18.6499 22.2736 17.1319 21.899C15.6139 21.5243 14.2105 20.8007 13.0395 19.7889C11.8686 18.7772 10.9643 17.5068 10.4026 16.0845C9.84092 14.6622 9.63826 13.1295 9.81164 11.6152C9.98502 10.1009 10.5294 8.64914 11.399 7.38195C12.2686 6.11477 13.4381 5.06913 14.8092 4.33286C16.1803 3.59659 17.713 3.1912 19.2785 3.15073H19.5617C22.698 3.15082 25.7679 4.02997 28.4042 5.68302C31.0404 7.33607 33.1314 9.69302 34.4269 12.4719C35.7225 15.2508 36.1678 18.334 35.7096 21.3527C35.2513 24.3714 33.909 27.1977 31.8431 29.4936Z" fill="white"/>
</svg>

